<?xml version="1.0" encoding="utf-8"?>
<svg version="1.1" id="Layer_1" xmlns="http://www.w3.org/2000/svg" xmlns:xlink="http://www.w3.org/1999/xlink" x="0px" y="0px"
	 viewBox="0 0 250 250" style="enable-background:new 0 0 250 250;" xml:space="preserve">
<style type="text/css">
	.st0{opacity:0.33;fill:none;stroke:#FAFAFA;stroke-miterlimit:10;}
	#DNA2 {
        stroke-width:9;
    	animation: rotation 10s  linear infinite; 
    	transform-origin: center;
	}
  	#DNA1 {
         stroke-width:8; 
      animation: rotation 12s linear infinite; 
      transform-origin: center;
    }
	#DNA0 {
        stroke-width:7;
      animation: rotation 15s linear infinite; 
      transform-origin: center;
    }
  	@keyframes rotation {
  		0% {transform: rotateZ(0deg);}
		100% {transform: rotateZ(359deg);}
	}
</style>
<path id="DNA2" class="st0" d="M142.4,25.1L142.4,25.1c14.8-16.4,42-5.1,40.9,16.9l0,0c-0.7,13.9,10.8,25.4,24.7,24.7h0
	c22.1-1.1,33.3,26.1,16.9,40.9l0,0c-10.3,9.3-10.3,25.5,0,34.9l0,0c16.4,14.8,5.1,42-16.9,40.9l0,0c-13.9-0.7-25.4,10.8-24.7,24.7
	l0,0c1.1,22.1-26.1,33.3-40.9,16.9l0,0c-9.3-10.3-25.5-10.3-34.9,0l0,0c-14.8,16.4-42,5.1-40.9-16.9v0c0.7-13.9-10.8-25.4-24.7-24.7
	l0,0c-22.1,1.1-33.3-26.1-16.9-40.9l0,0c10.3-9.3,10.3-25.5,0-34.9l0,0C8.7,92.8,20,65.6,42,66.7h0C55.9,67.4,67.4,55.9,66.7,42v0
	C65.6,20,92.8,8.7,107.6,25.1l0,0C116.9,35.4,133.1,35.4,142.4,25.1z"/>
<path id="DNA1" class="st0" d="M114.2,24.2L114.2,24.2c9.7-19.8,39-16.5,44,5l0,0c3.1,13.6,17.3,21.4,30.5,16.9l0,0
	c20.9-7.2,39.2,15.9,27.5,34.6l0,0c-7.4,11.8-2.9,27.4,9.6,33.5l0,0c19.8,9.7,16.5,39-5,44l0,0c-13.6,3.1-21.4,17.3-16.9,30.5l0,0
	c7.2,20.9-15.9,39.2-34.6,27.5l0,0c-11.8-7.4-27.4-2.9-33.5,9.6l0,0c-9.7,19.8-39,16.5-44-5l0,0c-3.1-13.6-17.3-21.4-30.5-16.9l0,0
	c-20.9,7.2-39.2-15.9-27.5-34.6l0,0c7.4-11.8,2.9-27.4-9.6-33.5l0,0c-19.8-9.7-16.5-39,5-44l0,0c13.6-3.1,21.4-17.3,16.9-30.5l0,0
	C38.9,40.4,62,22.1,80.7,33.8l0,0C92.5,41.1,108.1,36.7,114.2,24.2z"/>
<path id="DNA0" class="st0" d="M114.2,24.2L114.2,24.2c9.7-19.8,39-16.5,44,5l0,0c3.1,13.6,17.3,21.4,30.5,16.9l0,0
	c20.9-7.2,39.2,15.9,27.5,34.6l0,0c-7.4,11.8-2.9,27.4,9.6,33.5l0,0c19.8,9.7,16.5,39-5,44l0,0c-13.6,3.1-21.4,17.3-16.9,30.5l0,0
	c7.2,20.9-15.9,39.2-34.6,27.5l0,0c-11.8-7.4-27.4-2.9-33.5,9.6l0,0c-9.7,19.8-39,16.5-44-5l0,0c-3.1-13.6-17.3-21.4-30.5-16.9l0,0
	c-20.9,7.2-39.2-15.9-27.5-34.6l0,0c7.4-11.8,2.9-27.4-9.6-33.5l0,0c-19.8-9.7-16.5-39,5-44l0,0c13.6-3.1,21.4-17.3,16.9-30.5l0,0
	C38.9,40.4,62,22.1,80.7,33.8l0,0C92.5,41.1,108.1,36.7,114.2,24.2z"/>	
</svg>
