<?xml version="1.0" encoding="utf-8"?>
<!-- Generator: Adobe Illustrator 24.3.0, SVG Export Plug-In . SVG Version: 6.00 Build 0)  -->
<svg version="1.1" baseProfile="basic" id="Layer_1"
	 xmlns="http://www.w3.org/2000/svg" xmlns:xlink="http://www.w3.org/1999/xlink" x="0px" y="0px" viewBox="0 0 120 124"
	 xml:space="preserve">
<style type="text/css">
	.st0{fill:#808080;}
</style>
<path class="st0" d="M98.93,32.5H19.8c-2.65,0-4.8-2.15-4.8-4.8v-4.4c0-2.65,2.15-4.8,4.8-4.8h79.13c2.65,0,4.8,2.15,4.8,4.8v4.4
	C103.73,30.35,101.58,32.5,98.93,32.5z"/>
<path class="st0" d="M99.57,66H20.43c-2.65,0-4.8-2.15-4.8-4.8v-4.4c0-2.65,2.15-4.8,4.8-4.8h79.13c2.65,0,4.8,2.15,4.8,4.8v4.4
	C104.37,63.85,102.22,66,99.57,66z"/>
<path class="st0" d="M100.2,99.5H21.07c-2.65,0-4.8-2.15-4.8-4.8v-4.4c0-2.65,2.15-4.8,4.8-4.8h79.13c2.65,0,4.8,2.15,4.8,4.8v4.4
	C105,97.35,102.85,99.5,100.2,99.5z"/>
</svg>
