<?xml version="1.0" encoding="utf-8"?>
<!-- Generator: Adobe Illustrator 24.3.0, SVG Export Plug-In . SVG Version: 6.00 Build 0)  -->
<svg version="1.1" xmlns="http://www.w3.org/2000/svg" xmlns:xlink="http://www.w3.org/1999/xlink" x="0px" y="0px"
	 viewBox="0 0 409 124" style="enable-background:new 0 0 409 124;" xml:space="preserve">
<style type="text/css">
	.st0{fill:#D0D0D0;}
	.st1{fill:#79A65B;}
	.st2{fill:#FFFFFF;}
	.st3{opacity:0.501;}
	.st4{opacity:0.505;fill:#29ABE2;enable-background:new    ;}
	.st5{fill:#F43030;}
	.st6{opacity:0.997;fill:url(#Ellipse_49_1_);enable-background:new    ;}
	.st7{opacity:0.997;fill:url(#Ellipse_50_1_);enable-background:new    ;}
	.st8{opacity:0.42;fill:#29ABE2;enable-background:new    ;}
	.st9{opacity:0.18;fill:#29ABE2;enable-background:new    ;}
	.st10{opacity:0.7;fill:#29ABE2;enable-background:new    ;}
	
		.st11{opacity:0.699;fill:none;stroke:#FFFFFF;stroke-width:2.1588;stroke-linecap:round;stroke-miterlimit:10;enable-background:new    ;}
	.st12{opacity:0.5;fill:url(#Ellipse_49_2_);enable-background:new    ;}
	.st13{opacity:0.57;fill:url(#Ellipse_50_2_);enable-background:new    ;}
</style>
<g id="Layer_1">
	<rect x="119.6" y="21.5" class="st0" width="248.4" height="80.5"/>
	<g>
		<rect x="122.6" y="24.5" class="st1" width="242.4" height="44.1"/>
	</g>
	<rect x="182.7" y="24.5" width="35.1" height="44.1"/>
	<rect x="243.8" y="24.5" width="22" height="44.1"/>
	<rect x="301.8" y="24.5" width="27" height="44.1"/>
	<rect x="123" y="24.5" width="30.6" height="44.1"/>
	<g>
		<path class="st2" d="M129.6,76.2h5.7c3.5,0,6.3,1.2,6.3,5c0,3.7-2.7,5.3-6.3,5.3h-2.7v6.7h-3V76.2z M135.1,84.1
			c2.3,0,3.6-1,3.6-2.9c0-2-1.3-2.6-3.6-2.6h-2.4v5.5H135.1z M134.8,85.8L137,84l5.3,9.3h-3.4L134.8,85.8z"/>
		<path class="st2" d="M161.2,76.2h10.2v2.5h-7.2v4.4h6.1v2.5h-6.1v5h7.5v2.5h-10.5V76.2z"/>
		<path class="st2" d="M191.7,91l1.8-2.1c1.2,1.2,2.9,1.9,4.4,1.9c1.9,0,3-0.9,3-2.2c0-1.4-1.1-1.8-2.6-2.5l-2.3-1
			c-1.7-0.7-3.4-2-3.4-4.5c0-2.7,2.4-4.8,5.7-4.8c2,0,3.9,0.8,5.2,2.2l-1.6,1.9c-1.1-0.9-2.2-1.5-3.7-1.5c-1.6,0-2.7,0.8-2.7,2
			c0,1.3,1.3,1.8,2.7,2.4l2.3,1c2,0.8,3.4,2.1,3.4,4.6c0,2.8-2.3,5.1-6.1,5.1C195.6,93.5,193.3,92.6,191.7,91z"/>
		<path class="st2" d="M221.8,84.6c0-5.5,3.1-8.8,7.5-8.8s7.5,3.3,7.5,8.8c0,5.5-3.1,8.9-7.5,8.9S221.8,90.1,221.8,84.6z
			 M233.7,84.6c0-3.8-1.7-6.1-4.4-6.1s-4.4,2.3-4.4,6.1s1.7,6.3,4.4,6.3S233.7,88.5,233.7,84.6z"/>
		<path class="st2" d="M254.2,85.7v-9.6h3V86c0,3.7,1.4,4.9,3.4,4.9c2.1,0,3.5-1.2,3.5-4.9v-9.8h2.9v9.6c0,5.6-2.5,7.8-6.4,7.8
			S254.2,91.3,254.2,85.7z"/>
		<path class="st2" d="M286.5,76.2h5.7c3.5,0,6.3,1.2,6.3,5c0,3.7-2.7,5.3-6.3,5.3h-2.7v6.7h-3V76.2z M291.9,84.1
			c2.3,0,3.6-1,3.6-2.9c0-2-1.3-2.6-3.6-2.6h-2.4v5.5H291.9z M291.7,85.8l2.2-1.8l5.3,9.3h-3.4L291.7,85.8z"/>
		<path class="st2" d="M317.1,84.8c0-5.6,3.5-8.9,7.8-8.9c2.1,0,3.8,1,4.9,2.2l-1.6,1.9c-0.9-0.9-1.9-1.5-3.2-1.5
			c-2.8,0-4.8,2.3-4.8,6.2c0,3.9,1.8,6.2,4.7,6.2c1.5,0,2.7-0.7,3.6-1.7l1.6,1.9c-1.4,1.6-3.2,2.5-5.4,2.5
			C320.5,93.5,317.1,90.4,317.1,84.8z"/>
		<path class="st2" d="M349.7,76.2h10.2v2.5h-7.2v4.4h6.1v2.5h-6.1v5h7.5v2.5h-10.5V76.2z"/>
	</g>
	<g>
		<g>
			<g id="Layer_1_4_" transform="translate(-1 -1.35)">
				<g id="Path_808_4_" transform="translate(-343.917 -185.432)" class="st3">
					<path class="st2" d="M404.2,293c-0.4,0-0.8-0.1-1.1-0.3l-38.9-22.6c-0.7-0.4-1.1-1.2-1.1-2v-45.2c0-0.8,0.4-1.6,1.1-2
						l38.9-22.6c0.3-0.2,0.7-0.3,1.1-0.3s0.8,0.1,1.1,0.3l38.9,22.6c0.7,0.4,1.1,1.2,1.1,2v45.2c0,0.8-0.4,1.6-1.1,2l-38.9,22.6
						C405,292.9,404.6,293,404.2,293z"/>
					<path class="st2" d="M404.2,198.9C404.2,198.9,404.2,198.9,404.2,198.9l-39.6,23c0,0,0,0,0,0.1v46.2c0,0.1,0,0,0,0l39.4,23.3
						c0,0,0,0,0,0c0,0,0,0,0.1,0l39.5-22.5c0,0,0-1.2,0-1.2v-45.2c0,0,0,0,0,0L404.2,198.9C404.2,198.9,404.2,198.9,404.2,198.9
						 M404.2,195.8c0.8,0,1.5,0.2,2.2,0.6l38.9,22.6c1.4,0.8,2.2,2.3,2.2,3.8v45.2c0,1.6-0.8,3.1-2.2,3.8l-38.9,22.6
						c-0.7,0.4-1.4,0.6-2.2,0.6s-1.5-0.2-2.2-0.6L363.1,272c-1.4-0.8-2.2-2.3-2.2-3.8v-45.2c0-1.6,0.8-3.1,2.2-3.8l38.9-22.6
						C402.7,196.1,403.4,195.8,404.2,195.8z"/>
				</g>
			</g>
			<g id="Layer_2_4_" transform="translate(1.694 2.146)">
				<g id="Layer_2-2_4_">
					<path id="Path_807_4_" class="st4" d="M57.6,10l-0.3,45.8L96.9,80V33.5L57.6,10z"/>
					<circle id="Ellipse_51_4_" class="st5" cx="57.3" cy="52.4" r="20"/>
					
						<radialGradient id="Ellipse_49_1_" cx="36.1353" cy="60.3376" r="10.8868" fx="31.0213" fy="55.4853" gradientTransform="matrix(1 0 0 -1 1.694 123.854)" gradientUnits="userSpaceOnUse">
						<stop  offset="0.4545" style="stop-color:#FFFFFF"/>
						<stop  offset="0.6729" style="stop-color:#EDEDED"/>
						<stop  offset="1" style="stop-color:#CCCCCC"/>
					</radialGradient>
					<path id="Ellipse_49_8_" class="st6" d="M38.5,52.3c1.5,0,5.4,2.9,7.4,6.7c1.9,3.4,2.8,9.5,2.2,10.4c-2.2,3.1-5.5,5.4-9.6,5.4
						c-6.2,0-11.2-5-11.2-11.2S32.3,52.3,38.5,52.3z"/>
					
						<radialGradient id="Ellipse_50_1_" cx="75.4096" cy="60.3376" r="11.0068" fx="70.7239" fy="56.9769" gradientTransform="matrix(1 0 0 -1 1.694 123.854)" gradientUnits="userSpaceOnUse">
						<stop  offset="0" style="stop-color:#FFFFFF"/>
						<stop  offset="0.4696" style="stop-color:#FCFCFC"/>
						<stop  offset="0.6816" style="stop-color:#ECECEC"/>
						<stop  offset="1" style="stop-color:#CCCCCC"/>
					</radialGradient>
					<path id="Ellipse_50_8_" class="st7" d="M76.6,52.3c6.2,0,11.2,5,11.2,11.2c0,6.2-5,11.2-11.2,11.2c-4.2,0-7.9-2.4-9.8-5.8
						c-0.6-1.1-1.1-5.4,1.6-10C70.8,54.9,75.8,52.3,76.6,52.3z"/>
					<path id="Path_805_4_" class="st8" d="M57.4,102.6L96.9,80V33.5L57.4,55.8V102.6z"/>
					<path id="Path_806_4_" class="st9" d="M96.9,33.6L57.6,10L18,33l39.4,22.8L96.9,33.6z"/>
					<path id="Path_807-2_4_" class="st10" d="M18,33v46.3l39.4,23.3V55.8L18,33z"/>
				</g>
				<path id="Path_809_4_" class="st11" d="M18,33l39.4,22.8l39.6-22.2"/>
				<line id="Line_74_4_" class="st11" x1="57.4" y1="56.4" x2="57.4" y2="102.6"/>
				<circle id="Ellipse_52_4_" class="st2" cx="57.3" cy="55.7" r="2.3"/>
			</g>
		</g>
		
			<radialGradient id="Ellipse_49_2_" cx="37.8293" cy="62.4836" r="10.8868" fx="32.7153" fy="57.6313" gradientTransform="matrix(1 0 0 -1 1.694 128.146)" gradientUnits="userSpaceOnUse">
			<stop  offset="0.4545" style="stop-color:#FFFFFF"/>
			<stop  offset="0.6729" style="stop-color:#EDEDED"/>
			<stop  offset="1" style="stop-color:#CCCCCC"/>
		</radialGradient>
		<path id="Ellipse_49_7_" class="st12" d="M40.2,54.4c1.5,0,5.4,2.9,7.4,6.7c1.9,3.4,2.8,9.5,2.2,10.4c-2.2,3.1-5.5,5.4-9.6,5.4
			c-6.2,0-11.2-5-11.2-11.2C29,59.5,34,54.4,40.2,54.4z"/>
		
			<radialGradient id="Ellipse_50_2_" cx="77.1036" cy="62.4836" r="11.0068" fx="72.4179" fy="59.1229" gradientTransform="matrix(1 0 0 -1 1.694 128.146)" gradientUnits="userSpaceOnUse">
			<stop  offset="0" style="stop-color:#FFFFFF"/>
			<stop  offset="0.4696" style="stop-color:#FCFCFC"/>
			<stop  offset="0.6816" style="stop-color:#ECECEC"/>
			<stop  offset="1" style="stop-color:#CCCCCC"/>
		</radialGradient>
		<path id="Ellipse_50_7_" class="st13" d="M78.3,54.4c6.2,0,11.2,5,11.2,11.2c0,6.2-5,11.2-11.2,11.2c-4.2,0-7.9-2.4-9.8-5.8
			c-0.6-1.1-1.1-5.4,1.6-10C72.5,57,77.5,54.4,78.3,54.4z"/>
	</g>
	<g>
		<path class="st2" d="M135.3,36.9h5.5l6.4,20.3h-4.9l-2.7-10.3c-0.6-2-1.1-4.4-1.6-6.6h-0.1c-0.5,2.1-1,4.5-1.6,6.6l-2.7,10.3h-4.7
			L135.3,36.9z M133.1,48.8h9.8v3.6h-9.8V48.8z"/>
		<path class="st2" d="M147.4,47c0-6.6,3.7-10.4,9.2-10.4c5.5,0,9.2,3.8,9.2,10.4c0,6.6-3.7,10.6-9.2,10.6
			C151.1,57.6,147.4,53.6,147.4,47z M161.1,47c0-4.1-1.7-6.5-4.5-6.5c-2.8,0-4.5,2.4-4.5,6.5c0,4.3,1.7,6.9,4.5,6.9
			C159.4,53.8,161.1,51.3,161.1,47z M154.3,57.1l4.7-0.5c0.8,1.9,2.9,2.6,4.8,2.6c0.9,0,1.7-0.2,2.3-0.4l0.8,3.3
			c-0.8,0.4-2,0.7-3.6,0.7C158.8,62.9,155.7,60.4,154.3,57.1z"/>
		<path class="st2" d="M168.8,47.8V36.9h4.6v11.4c0,4,1.3,5.4,3.5,5.4c2.3,0,3.6-1.4,3.6-5.4V36.9h4.4v10.9c0,6.8-2.8,9.8-8,9.8
			S168.8,54.6,168.8,47.8z"/>
		<path class="st2" d="M192.3,36.9h5.5l6.4,20.3h-4.9l-2.7-10.3c-0.6-2-1.1-4.4-1.6-6.6h-0.1c-0.5,2.1-1,4.5-1.6,6.6l-2.7,10.3h-4.7
			L192.3,36.9z M190.1,48.8h9.8v3.6h-9.8V48.8z"/>
		<path class="st2" d="M205.3,36.9h7.3c4.3,0,7.8,1.5,7.8,6.3c0,4.7-3.5,6.7-7.8,6.7h-2.7v7.3h-4.6V36.9z M212.3,46.3
			c2.4,0,3.7-1,3.7-3c0-2-1.3-2.7-3.7-2.7h-2.3v5.7H212.3z M211.8,48.7l3.2-2.9l6.5,11.5h-5.1L211.8,48.7z"/>
		<path class="st2" d="M223.7,36.9h4.6v20.3h-4.6V36.9z"/>
		<path class="st2" d="M250.1,47.6h10.8v2.6h-10.8V47.6z"/>
		<path class="st2" d="M262.6,47.1c0-8.3,5.5-13.1,11.8-13.1c3.2,0,5.8,1.5,7.5,3.2l-3,3.6c-1.3-1.2-2.6-2-4.4-2c-3.4,0-6.1,3-6.1,8
			c0,5.1,2.4,8.1,6,8.1c2,0,3.7-1,4.9-2.3l3,3.5c-2.1,2.4-4.8,3.7-8,3.7C267.8,59.8,262.6,55.5,262.6,47.1z"/>
		<path class="st2" d="M282.9,46.8c0-8.1,4.6-12.8,11.3-12.8c6.7,0,11.3,4.7,11.3,12.8c0,8.1-4.6,13-11.3,13
			C287.5,59.8,282.9,55,282.9,46.8z M299.8,46.8c0-5-2.1-7.9-5.5-7.9c-3.4,0-5.5,2.9-5.5,7.9c0,5,2.1,8.2,5.5,8.2
			C297.6,55,299.8,51.8,299.8,46.8z"/>
		<path class="st2" d="M306.2,34.5h6l3,11.6c0.7,2.7,1.2,5.2,2,8h0.2c0.8-2.7,1.3-5.3,2-8l2.9-11.6h5.8l-7.5,24.9h-6.8L306.2,34.5z"
			/>
		<path class="st2" d="M329.9,34.5h5.6v24.9h-5.6V34.5z"/>
		<path class="st2" d="M340.9,34.5h7c7.6,0,12.5,3.8,12.5,12.3s-4.9,12.6-12.2,12.6h-7.4V34.5z M347.6,54.9c4.2,0,7.1-2.1,7.1-8
			s-2.9-7.8-7.1-7.8h-1.1v15.8H347.6z"/>
		<path class="st2" d="M236.1,36.9h5.5l6.4,20.3h-4.9l-2.7-10.3c-0.6-2-1.1-4.4-1.6-6.6h-0.1c-0.5,2.1-1,4.5-1.6,6.6l-2.7,10.3h-4.7
			L236.1,36.9z M233.9,48.8h9.8v3.6h-9.8V48.8z"/>
	</g>
</g>
<g id="Layer_2">
</g>
</svg>
